<svg xmlns="http://www.w3.org/2000/svg" xmlns:xlink="http://www.w3.org/1999/xlink" fill="none" version="1.1" width="15.082611083984375" height="20.074432373046875" viewBox="0 0 15.082611083984375 20.074432373046875"><g transform="matrix(0,1,1,0,0,0)"><path d="M11.467841,1.70761198L18.705339,11.190611C19.120779,11.734985,19.191341,12.467935,18.887392,13.081567C18.583439,13.695201,17.957626,14.083213,17.27284,14.082611L2.8000903,14.082611C2.1155757,14.082643,1.4902856899999999,13.694413,1.18670966,13.080896C0.88313385,12.46738,0.953818284,11.734771,1.36909047,11.190611L8.6065907,1.70761198C9.3270092,0.76412949,10.7474222,0.76412949,11.467841,1.70761198Z" fill="#A6F3FF" fill-opacity="1" style="mix-blend-mode:passthrough"/><path d="M10.0372152,2.399999999846969e-7Q8.652286100000001,2.399999999846969e-7,7.8117986,1.10072982L7.8116589,1.1009135L0.5741339,10.5839443Q-0.48063710000000004,11.966084,0.29043012999999995,13.524383Q1.061498445,15.082691,2.8000902,15.082611L17.271961,15.08261Q19.011404,15.084139,19.783487,13.525428Q20.555559,11.96672,19.500271,10.5839128L12.262632,1.10072982Q11.422144,2.399999999846969e-7,10.0372152,2.399999999846969e-7ZM9.4013824,2.314494L9.4015226,2.3143104Q9.6416368,2.0000001000000003,10.0372152,2.0000001000000003Q10.43291,2.0000001000000003,10.673048,2.314494L17.910408,11.797309Q18.211889,12.192358,17.991295,12.637706Q17.770704,13.083048,17.273718,13.082611L2.8000902,13.082611Q2.3032937,13.082633,2.0829892,12.637404Q1.8626833600000001,12.192175,2.1640471,11.797277L9.4013824,2.314494Z" fill-rule="evenodd" fill="#359BB8" fill-opacity="1"/></g></svg>