<?xml version="1.0" standalone="no"?><!DOCTYPE svg PUBLIC "-//W3C//DTD SVG 1.1//EN" "http://www.w3.org/Graphics/SVG/1.1/DTD/svg11.dtd"><svg t="1765425792315" class="icon" viewBox="0 0 1024 1024" version="1.1" xmlns="http://www.w3.org/2000/svg" p-id="5151" xmlns:xlink="http://www.w3.org/1999/xlink" width="200" height="200"><path d="M187.2 160c-16-83.2 48-160 131.2-160C392 0 452.8 60.8 452.8 134.4v166.4c19.2 0 38.4-3.2 57.6-3.2 19.2 0 35.2 0 54.4 3.2V134.4c0-73.6 60.8-134.4 134.4-134.4 83.2 0 147.2 76.8 134.4 160l-35.2 195.2c124.8 54.4 220.8 150.4 220.8 268.8v73.6c0 99.2-64 182.4-156.8 236.8-92.8 57.6-214.4 89.6-352 89.6s-259.2-32-352-89.6C68.8 880 4.8 796.8 4.8 697.6v-73.6c0-118.4 92.8-214.4 217.6-268.8L187.2 160z m563.2 220.8l41.6-230.4c9.6-57.6-32-112-92.8-112-51.2 0-92.8 41.6-92.8 92.8v211.2c-12.8-3.2-28.8-3.2-41.6-3.2-19.2 0-35.2-3.2-54.4-3.2-19.2 0-38.4 0-57.6 3.2-12.8 0-28.8 3.2-41.6 3.2V134.4c0-51.2-41.6-92.8-92.8-92.8C260.8 41.6 216 96 228.8 153.6L270.4 384c-134.4 51.2-224 140.8-224 243.2v73.6c0 156.8 208 284.8 464 284.8s464-128 464-284.8v-73.6c3.2-105.6-86.4-195.2-224-246.4z" fill="#633001" p-id="5152"></path><path d="M977.6 697.6c0 156.8-208 284.8-464 284.8s-464-128-464-284.8v-73.6h931.2v73.6z" fill="#FEDC90" p-id="5153"></path><path d="M228.8 153.6C216 96 260.8 41.6 318.4 41.6c51.2 0 92.8 41.6 92.8 92.8v211.2c32-3.2 64-6.4 99.2-6.4 32 0 64 3.2 96 6.4V134.4c0-51.2 41.6-92.8 92.8-92.8 57.6 0 102.4 54.4 92.8 112L750.4 384c134.4 51.2 227.2 140.8 227.2 243.2 0 156.8-208 284.8-464 284.8s-464-128-464-284.8c0-102.4 89.6-192 224-243.2L228.8 153.6z" fill="#D1884F" p-id="5154"></path><path d="M382.4 604.8c0 41.6-22.4 76.8-51.2 76.8-28.8 0-51.2-35.2-51.2-76.8s22.4-76.8 51.2-76.8c28.8 0 51.2 35.2 51.2 76.8zM737.6 604.8c0 41.6-22.4 76.8-51.2 76.8-28.8 0-51.2-35.2-51.2-76.8s22.4-76.8 51.2-76.8c28.8 0 51.2 35.2 51.2 76.8z" fill="#633001" p-id="5155"></path></svg>